<svg data-v-efadd23f="" xmlns="http://www.w3.org/2000/svg" fill="none" stroke="#fff" viewBox="0 0 32 33" class="icon icon-basket"><path stroke-linecap="round" stroke-linejoin="round" stroke-width="2" d="m8.46 8.834-.89-4H4.998m5.81 14.946L8.46 8.835h16.877c.85 0 1.482.783 1.304 1.613l-2.002 9.334a1.333 1.333 0 0 1-1.304 1.053H12.11c-.628 0-1.17-.439-1.303-1.053Z"></path><path fill="#000" stroke-linecap="round" stroke-linejoin="round" stroke-width="2" d="M23.786 25.666a.5.5 0 1 0 .006 1 .5.5 0 0 0-.006-1Z"></path><path stroke-linecap="round" stroke-linejoin="round" stroke-width="2" d="M12.308 25.666c-.276 0-.5.224-.497.5a.498.498 0 1 0 .998 0 .5.5 0 0 0-.501-.5"></path></svg>