<svg data-v-432cdbf0="" xmlns="http://www.w3.org/2000/svg" fill="none" viewBox="0 0 158 43" class="header__logo" alt="Логотип компании Hoff"><path fill="#DA0916" fill-rule="evenodd" d="M35.844 10.633c-5.965 0-10.8 4.852-10.8 10.84v9.497c0 5.987 4.835 10.839 10.8 10.839 5.966 0 10.8-4.852 10.8-10.84v-9.445c.051-5.988-4.834-10.891-10.8-10.891Zm0 23.485c-1.234 0-2.263-1.032-2.263-2.22V20.647c0-1.238 1.03-2.22 2.263-2.22 1.234 0 2.212 1.033 2.212 2.22V31.9c.051 1.187-.977 2.22-2.212 2.22Zm23.862-24.93h2.314c2.366 0 4.269-1.497 4.269-3.872 0-2.374-1.903-3.87-4.269-3.87h-2.365c-5.966 0-10.8 4.748-10.8 10.735v25.447a4.266 4.266 0 0 0 4.269 4.284 4.266 4.266 0 0 0 4.268-4.284V20.801h2.983c2.365 0 4.268-1.497 4.268-3.87 0-2.375-1.903-3.924-4.268-3.924h-2.983v-1.342c.051-1.393.874-2.477 2.314-2.477Zm11.16 23.33a4.728 4.728 0 0 0-4.731 4.749 4.728 4.728 0 0 0 4.73 4.748 4.728 4.728 0 0 0 4.732-4.748c.052-2.633-2.108-4.749-4.731-4.749Zm6.582-23.33h2.315c2.365 0 4.268-1.497 4.268-3.872 0-2.374-1.903-3.87-4.268-3.87h-2.366c-5.966 0-10.8 4.748-10.8 10.735V26.79a4.266 4.266 0 0 0 4.269 4.284 4.266 4.266 0 0 0 4.268-4.284V20.8h2.983c2.366 0 4.268-1.497 4.268-3.87 0-2.375-1.902-3.924-4.268-3.924h-2.983v-1.342c.052-1.393.874-2.477 2.314-2.477ZM18.668 0a4.266 4.266 0 0 0-4.269 4.284v8.723H8.537V4.284A4.266 4.266 0 0 0 4.268 0 4.266 4.266 0 0 0 0 4.284v33.293a4.266 4.266 0 0 0 4.268 4.284 4.266 4.266 0 0 0 4.269-4.284V20.8h3.651c1.183 0 2.16.981 2.16 2.168v14.608a4.266 4.266 0 0 0 4.268 4.284 4.266 4.266 0 0 0 4.269-4.284V4.284C22.988 1.91 21.033 0 18.668 0Z" clip-rule="evenodd"></path><path fill="#000" d="M89.087 28.246c-.007.015-.007.034 0 .056a.078.078 0 0 0 .057.023h3.085c.068 0 .102-.03.102-.09v-6.007c0-.067-.034-.101-.102-.101h-2.246c-.068 0-.102.034-.102.101 0 1.533-.019 2.615-.057 3.246-.03.623-.094 1.12-.192 1.487-.099.368-.28.797-.545 1.285Zm-1.123 2.727a.522.522 0 0 1-.397.17.56.56 0 0 1-.567-.564v-1.713a.52.52 0 0 1 .159-.383.514.514 0 0 1 .374-.158c.06 0 .102-.023.125-.068.325-.48.548-.905.67-1.273.128-.376.215-.898.26-1.567.053-.668.08-1.765.08-3.29v-.372c0-.173.064-.323.192-.45a.622.622 0 0 1 .454-.192h3.619c.173 0 .325.064.453.191a.615.615 0 0 1 .193.451v6.48c0 .06.03.09.09.09h.228c.173 0 .325.064.453.191a.615.615 0 0 1 .193.451v1.612a.513.513 0 0 1-.17.394.522.522 0 0 1-.397.17.559.559 0 0 1-.567-.564V29.44c0-.067-.034-.1-.102-.1h-5.082c-.06 0-.09.033-.09.1v1.139a.517.517 0 0 1-.17.394Zm12.943-8.147c-.416-.541-1.01-.812-1.78-.812-.772 0-1.37.27-1.793.812-.416.533-.624 1.333-.624 2.4s.208 1.87.624 2.411c.423.534 1.02.8 1.792.8.771 0 1.365-.266 1.781-.8.423-.54.635-1.344.635-2.411s-.212-1.867-.635-2.4Zm.907 5.51c-.658.744-1.554 1.116-2.688 1.116-1.134 0-2.034-.372-2.7-1.116-.657-.744-.986-1.78-.986-3.11 0-1.33.329-2.367.986-3.11.666-.744 1.566-1.116 2.7-1.116 1.134 0 2.03.372 2.688 1.116.666.743.999 1.78.999 3.11 0 1.33-.333 2.366-.999 3.11Zm3.365.834a.571.571 0 0 1-.42.17.612.612 0 0 1-.431-.17.604.604 0 0 1-.17-.428V21.71c0-.165.057-.304.17-.417a.591.591 0 0 1 .431-.18c.401 0 .692.176.874.53l2.234 4.304c0 .008.004.011.012.011.007 0 .011-.003.011-.01l2.223-4.283c.189-.368.492-.552.908-.552.174 0 .321.06.442.18s.182.267.182.44v6.986c0 .173-.061.32-.182.44a.603.603 0 0 1-.442.18.605.605 0 0 1-.443-.18.595.595 0 0 1-.181-.44v-5.454c0-.007-.004-.011-.011-.011-.008 0-.012.004-.012.011l-1.678 3.313c-.174.338-.447.507-.817.507-.371 0-.643-.169-.817-.507l-1.679-3.313c0-.007-.003-.011-.011-.011s-.011.004-.011.011v5.477a.584.584 0 0 1-.182.428Zm21.924-3.493c.106 0 .197.041.272.124a.353.353 0 0 1 .125.27c0 .105-.042.2-.125.282a.37.37 0 0 1-.272.112h-9.982a.414.414 0 0 1-.284-.112.409.409 0 0 1-.113-.282.37.37 0 0 1 .113-.27.394.394 0 0 1 .284-.124h9.982ZM89.325 40.986c.734 0 1.339-.244 1.815-.733.477-.488.749-1.175.817-2.062 0-.06-.03-.09-.09-.09h-3.529a.502.502 0 0 1-.351-.135.495.495 0 0 1-.136-.35.481.481 0 0 1 .488-.485h3.493c.076 0 .106-.033.09-.1-.105-.797-.385-1.405-.838-1.826-.454-.428-1.04-.642-1.759-.642-.506 0-.937.044-1.293.135a.417.417 0 0 1-.363-.057.394.394 0 0 1-.159-.326.64.64 0 0 1 .148-.417.61.61 0 0 1 .374-.237 8.084 8.084 0 0 1 1.407-.113c1.195 0 2.125.372 2.79 1.116.673.744 1.01 1.78 1.01 3.11 0 1.345-.348 2.385-1.044 3.122-.688.736-1.607 1.104-2.756 1.104a8.76 8.76 0 0 1-1.452-.113.634.634 0 0 1-.386-.225.685.685 0 0 1-.147-.428c0-.136.053-.245.159-.327a.398.398 0 0 1 .362-.068c.401.098.851.147 1.35.147Zm5.501-6.288a.534.534 0 0 1-.375-.147.527.527 0 0 1-.147-.372c0-.142.05-.263.147-.36a.513.513 0 0 1 .375-.158h4.855a.48.48 0 0 1 .363.158.474.474 0 0 1 .158.36.51.51 0 0 1-.158.372.497.497 0 0 1-.363.147h-1.702c-.068 0-.102.03-.102.09v6.48c0 .172-.06.319-.181.439a.604.604 0 0 1-.443.18.604.604 0 0 1-.442-.18.596.596 0 0 1-.182-.44v-6.48c0-.06-.034-.09-.102-.09h-1.701Zm11.908.676c-.416-.541-1.01-.812-1.781-.812-.772 0-1.369.27-1.793.812-.415.533-.623 1.333-.623 2.4s.208 1.87.623 2.412c.424.533 1.021.8 1.793.8.771 0 1.365-.267 1.781-.8.423-.541.635-1.345.635-2.412s-.212-1.867-.635-2.4Zm.907 5.51c-.658.744-1.554 1.116-2.688 1.116-1.135 0-2.034-.372-2.7-1.116-.658-.743-.987-1.78-.987-3.11 0-1.33.329-2.366.987-3.11.666-.744 1.565-1.116 2.7-1.116 1.134 0 2.03.372 2.688 1.116.665.744.998 1.78.998 3.11 0 1.33-.333 2.367-.998 3.11Zm5.365 1.071a.446.446 0 0 1-.499-.45c0-.136.045-.253.136-.35a.67.67 0 0 1 .363-.203c.492-.098.824-.357.998-.778.174-.42.261-1.183.261-2.287v-3.584c0-.172.064-.323.193-.45a.624.624 0 0 1 .454-.192h4.038c.174 0 .325.064.454.191a.616.616 0 0 1 .192.451v6.965c0 .172-.06.319-.181.439a.605.605 0 0 1-.442.18.605.605 0 0 1-.443-.18.596.596 0 0 1-.181-.44v-6.49c0-.068-.031-.102-.091-.102h-2.643c-.068 0-.102.034-.102.102v3.11c0 .992-.08 1.765-.238 2.321-.159.549-.416.958-.772 1.229-.347.263-.847.435-1.497.518Zm9.067-.068a.591.591 0 0 1-.431-.18.583.583 0 0 1-.181-.428v-7.01c0-.165.06-.307.181-.428a.591.591 0 0 1 .431-.18c.167 0 .311.06.432.18s.181.263.181.428v5.522c0 .008.004.012.011.012.015 0 .023-.004.023-.012l3.221-5.6c.212-.354.518-.53.919-.53.167 0 .31.06.431.18s.182.263.182.428v7.01a.584.584 0 0 1-.182.428.59.59 0 0 1-.431.18.591.591 0 0 1-.431-.18.583.583 0 0 1-.181-.428v-5.522c0-.008-.004-.011-.012-.011-.007 0-.011.003-.011.011l-3.233 5.6c-.211.354-.518.53-.919.53Zm10.156-2.569c-1.073 0-1.845-.214-2.314-.642-.461-.436-.692-1.15-.692-2.142V34.27c0-.166.061-.309.182-.429a.591.591 0 0 1 .431-.18c.166 0 .306.06.42.18a.56.56 0 0 1 .181.428v2.119c0 .729.144 1.228.431 1.499.288.263.817.394 1.588.394.499 0 .927-.112 1.282-.338.053-.03.079-.082.079-.158v-3.504c0-.173.061-.32.182-.44a.628.628 0 0 1 .442-.18c.167 0 .31.06.431.18.129.12.193.267.193.44v6.986c0 .173-.064.32-.193.44a.59.59 0 0 1-.431.18.628.628 0 0 1-.442-.18.597.597 0 0 1-.182-.44v-2.242c0-.023-.011-.038-.034-.045-.015-.015-.03-.015-.045 0-.423.225-.926.338-1.509.338Zm5.762 2.389a.603.603 0 0 1-.442.18.605.605 0 0 1-.443-.18.596.596 0 0 1-.181-.44v-6.986c0-.173.06-.32.181-.44a.605.605 0 0 1 .443-.18c.174 0 .321.06.442.18s.182.267.182.44v2.637c0 .067.034.101.102.101h3.312c.068 0 .102-.034.102-.101V34.28c0-.173.06-.32.181-.44a.605.605 0 0 1 .443-.18c.174 0 .321.06.442.18s.182.267.182.44v6.986c0 .173-.061.32-.182.44a.603.603 0 0 1-.442.18.605.605 0 0 1-.443-.18.596.596 0 0 1-.181-.44V38.09c0-.068-.034-.102-.102-.102h-3.312c-.068 0-.102.034-.102.102v3.177c0 .173-.061.32-.182.44Zm11.767-6.333c-.416-.541-1.01-.812-1.781-.812-.771 0-1.369.27-1.792.812-.416.533-.624 1.333-.624 2.4s.208 1.87.624 2.412c.423.533 1.021.8 1.792.8.771 0 1.365-.267 1.781-.8.423-.541.635-1.345.635-2.412s-.212-1.867-.635-2.4Zm.907 5.51c-.658.744-1.554 1.116-2.688 1.116-1.134 0-2.034-.372-2.7-1.116-.658-.743-.987-1.78-.987-3.11 0-1.33.329-2.366.987-3.11.666-.744 1.566-1.116 2.7-1.116 1.134 0 2.03.372 2.688 1.116.666.744.998 1.78.998 3.11 0 1.33-.332 2.367-.998 3.11Zm2.991 1.003a.622.622 0 0 1-.454-.191.613.613 0 0 1-.193-.451v-6.942c0-.172.064-.323.193-.45a.623.623 0 0 1 .454-.192h3.834a.497.497 0 0 1 .51.507.497.497 0 0 1-.51.507h-3.131c-.068 0-.102.03-.102.09v2.153c0 .067.034.101.102.101h2.926c.137 0 .25.049.341.147a.44.44 0 0 1 .147.338.476.476 0 0 1-.147.349.464.464 0 0 1-.341.135h-2.926c-.068 0-.102.03-.102.09v2.694c0 .067.034.101.102.101h3.131c.143 0 .264.049.363.147a.49.49 0 0 1 .147.36.49.49 0 0 1-.147.36.497.497 0 0 1-.363.147h-3.834Z" opacity=".9"></path></svg>