<?xml version="1.0" encoding="UTF-8"?>
<svg viewBox="0 0 24 24" fill="none" xmlns="http://www.w3.org/2000/svg">
	<path fill-rule="evenodd" clip-rule="evenodd"
		  d="M17 9.5C17 13.6421 13.6421 17 9.5 17C5.35786 17 2 13.6421 2 9.5C2 5.35786 5.35786 2 9.5 2C13.6421 2 17 5.35786 17 9.5ZM14.473 16.3942C13.0748 17.4046 11.3569 18 9.5 18C4.80558 18 1 14.1944 1 9.5C1 4.80558 4.80558 1 9.5 1C14.1944 1 18 4.80558 18 9.5C18 11.9714 16.9453 14.1964 15.2615 15.7495L20.2561 19.9117C20.4682 20.0885 20.4969 20.4038 20.3201 20.6159C20.1433 20.828 19.828 20.8567 19.6159 20.6799L14.473 16.3942Z"
		  fill="black"/>
	<path
		d="M14.473 16.3942L14.569 16.2789C14.5164 16.2351 14.4407 16.2325 14.3852 16.2726L14.473 16.3942ZM15.2615 15.7495L15.1598 15.6392C15.128 15.6685 15.1104 15.7101 15.1115 15.7533C15.1126 15.7965 15.1322 15.8371 15.1654 15.8647L15.2615 15.7495ZM20.2561 19.9117L20.16 20.0269L20.2561 19.9117ZM20.3201 20.6159L20.2049 20.5199H20.2049L20.3201 20.6159ZM19.6159 20.6799L19.7119 20.5647L19.6159 20.6799ZM9.5 17.15C13.725 17.15 17.15 13.725 17.15 9.5H16.85C16.85 13.5593 13.5593 16.85 9.5 16.85V17.15ZM1.85 9.5C1.85 13.725 5.27502 17.15 9.5 17.15V16.85C5.44071 16.85 2.15 13.5593 2.15 9.5H1.85ZM9.5 1.85C5.27502 1.85 1.85 5.27502 1.85 9.5H2.15C2.15 5.44071 5.44071 2.15 9.5 2.15V1.85ZM17.15 9.5C17.15 5.27502 13.725 1.85 9.5 1.85V2.15C13.5593 2.15 16.85 5.44071 16.85 9.5H17.15ZM9.5 18.15C11.3895 18.15 13.1379 17.544 14.5609 16.5158L14.3852 16.2726C13.0116 17.2651 11.3243 17.85 9.5 17.85V18.15ZM0.85 9.5C0.85 14.2773 4.72274 18.15 9.5 18.15V17.85C4.88842 17.85 1.15 14.1116 1.15 9.5H0.85ZM9.5 0.85C4.72274 0.85 0.85 4.72274 0.85 9.5H1.15C1.15 4.88842 4.88842 1.15 9.5 1.15V0.85ZM18.15 9.5C18.15 4.72274 14.2773 0.85 9.5 0.85V1.15C14.1116 1.15 17.85 4.88842 17.85 9.5H18.15ZM15.3632 15.8598C17.0765 14.2794 18.15 12.015 18.15 9.5H17.85C17.85 11.9277 16.8141 14.1133 15.1598 15.6392L15.3632 15.8598ZM15.1654 15.8647L20.16 20.0269L20.3521 19.7965L15.3575 15.6343L15.1654 15.8647ZM20.16 20.0269C20.3085 20.1507 20.3286 20.3714 20.2049 20.5199L20.4353 20.7119C20.6651 20.4361 20.6279 20.0263 20.3521 19.7965L20.16 20.0269ZM20.2049 20.5199C20.0811 20.6684 19.8604 20.6884 19.7119 20.5647L19.5199 20.7951C19.7956 21.025 20.2055 20.9877 20.4353 20.7119L20.2049 20.5199ZM19.7119 20.5647L14.569 16.2789L14.377 16.5094L19.5199 20.7951L19.7119 20.5647Z"
		fill="black"/>
</svg>
