<svg width="48" height="48" fill="none" xmlns="http://www.w3.org/2000/svg"><g clip-path="url(#a)"><path d="M38.304 0H9.696A9.692 9.692 0 0 0 0 9.696V38.31C0 43.662 4.338 48 9.696 48H38.31c5.352 0 9.696-4.338 9.696-9.696V9.696C48 4.338 43.662 0 38.304 0Z" fill="#000"/></g><path d="M31.306 24.065c-.038-4.054 3.395-6.026 3.552-6.118-1.944-2.771-4.957-3.15-6.016-3.18-2.531-.26-4.986 1.48-6.275 1.48-1.315 0-3.3-1.455-5.44-1.412-2.754.041-5.33 1.6-6.742 4.02-2.916 4.934-.742 12.186 2.052 16.174 1.397 1.954 3.03 4.135 5.167 4.058 2.09-.084 2.872-1.303 5.395-1.303 2.5 0 3.233 1.303 5.413 1.254 2.244-.035 3.657-1.962 5.005-3.933 1.615-2.24 2.263-4.444 2.289-4.557-.053-.018-4.358-1.624-4.4-6.483ZM27.188 12.143c1.125-1.375 1.894-3.245 1.68-5.143-1.627.07-3.662 1.1-4.835 2.445-1.037 1.185-1.963 3.127-1.724 4.954 1.829.133 3.706-.902 4.88-2.256Z" fill="#fff"/><defs><clipPath id="a"><path fill="#fff" d="M0 0h48v48H0z"/></clipPath></defs></svg>