<svg width="48" height="48" fill="none" xmlns="http://www.w3.org/2000/svg"><rect width="48" height="48" rx="10" fill="#000"/><path d="M10.588 7.505C10.217 7.903 10 8.514 10 9.324v28.369c0 .794.217 1.406.604 1.803l.108.092 16.1-15.896v-.352L10.696 7.43l-.109.076Z" fill="url(#a)"/><path d="m32.167 28.996-5.371-5.304v-.367l5.371-5.304.108.076 6.347 3.562c1.827 1.009 1.827 2.675 0 3.714l-6.346 3.561c0-.015-.109.062-.109.062Z" fill="url(#b)"/><path d="m32.275 28.92-5.48-5.412-16.207 15.988c.588.627 1.595.703 2.694.092L32.275 28.92Z" fill="url(#c)"/><path d="M32.275 18.082 13.297 7.444c-1.114-.642-2.12-.55-2.709.076l16.208 15.988 5.48-5.426Z" fill="url(#d)"/><path opacity=".2" d="M32.167 28.812 13.313 39.39c-1.053.596-1.997.55-2.6.016l-.11.107.11.091c.603.535 1.547.581 2.6-.015L32.29 28.92l-.124-.107Z" fill="#000"/><path opacity=".12" d="m38.638 25.174-6.486 3.638.108.107 6.347-3.561c.913-.52 1.362-1.177 1.362-1.85-.047.612-.51 1.193-1.331 1.666Z" fill="#000"/><path opacity=".25" d="m13.297 7.626 25.34 14.215c.821.459 1.286 1.055 1.363 1.666 0-.672-.449-1.345-1.362-1.85L13.298 7.444C11.47 6.403 10 7.259 10 9.323v.183c0-2.063 1.47-2.904 3.297-1.88Z" fill="#fff"/><defs><linearGradient id="a" x1="25.361" y1="9.011" x2="-.382" y2="15.958" gradientUnits="userSpaceOnUse"><stop stop-color="#00A0FF"/><stop offset=".007" stop-color="#00A1FF"/><stop offset=".26" stop-color="#00BEFF"/><stop offset=".512" stop-color="#00D2FF"/><stop offset=".76" stop-color="#00DFFF"/><stop offset="1" stop-color="#00E3FF"/></linearGradient><linearGradient id="b" x1="41.016" y1="23.501" x2="9.572" y2="23.501" gradientUnits="userSpaceOnUse"><stop stop-color="#FFE000"/><stop offset=".409" stop-color="#FFBD00"/><stop offset=".775" stop-color="orange"/><stop offset="1" stop-color="#FF9C00"/></linearGradient><linearGradient id="c" x1="29.286" y1="26.451" x2="8.97" y2="61.081" gradientUnits="userSpaceOnUse"><stop stop-color="#FF3A44"/><stop offset="1" stop-color="#C31162"/></linearGradient><linearGradient id="d" x1="6.506" y1="-1.926" x2="15.57" y2="13.54" gradientUnits="userSpaceOnUse"><stop stop-color="#32A071"/><stop offset=".069" stop-color="#2DA771"/><stop offset=".476" stop-color="#15CF74"/><stop offset=".801" stop-color="#06E775"/><stop offset="1" stop-color="#00F076"/></linearGradient></defs></svg>