<svg width="48" height="48" fill="none" xmlns="http://www.w3.org/2000/svg"><path d="M34.5 0H13.52C3.622 0 0 3.603 0 13.5v20.98C0 44.378 3.623 48 13.52 48H34.5C44.377 48 48 44.377 48 34.48V13.5C48 3.603 44.397 0 34.5 0Z" fill="#DA0916"/><path fill-rule="evenodd" clip-rule="evenodd" d="m20.485 28.964-.581 1.292H18.61l2.755-6.267h1.116l2.755 6.267h-1.332l-.561-1.292h-2.86Zm.456-1.136h1.926l-.966-2.24-.96 2.24Zm20.446-3.839h1.273v6.267h-1.273V23.99Zm-4.994 5.131h3.492v1.136H35.14V23.99h4.608v1.156h-3.355v1.273h2.318v1.155h-2.318v1.547Zm-3.61-5.13h1.332l-2.18 6.286h-1.078l-1.43-4.126-1.429 4.126h-1.044l-2.2-6.287h1.37l1.391 4.322 1.41-4.322h1.045l1.43 4.322 1.383-4.322Zm-16.098 0h1.273v3.55c0 1.796-.986 2.834-2.722 2.834-1.697 0-2.683-1.025-2.683-2.794v-3.584h1.273v3.551c0 1.058.503 1.619 1.43 1.619.927 0 1.43-.561 1.43-1.58V23.99Zm-7.174 0h1.273v6.286H9.51V27.71H6.639v2.566H5.366v-6.287h1.273v2.527H9.51v-2.527Zm14.499-7.984a7.983 7.983 0 0 1-7.984-7.984h1.116c0 3.78 3.088 6.848 6.868 6.848 3.78 0 6.867-3.068 6.867-6.848h1.116c0 4.393-3.584 7.984-7.983 7.984Z" fill="#fff"/></svg>