<svg data-v-96208f30="" xmlns="http://www.w3.org/2000/svg" width="24" height="24" fill="none"><path fill="#000" fill-rule="evenodd" d="M17.922 5.389A8.156 8.156 0 0 0 6.39 16.922l5.126 5.126a.906.906 0 0 0 1.281 0l5.126-5.126a8.156 8.156 0 0 0 0-11.533Zm-1.13 1.437a6.343 6.343 0 0 1-.15 8.814l-4.486 4.484L7.67 15.64a6.343 6.343 0 0 1 8.97-8.97l.152.156Zm-2.488 3.75a2.149 2.149 0 1 0-4.297 0 2.149 2.149 0 0 0 4.297 0Z" clip-rule="evenodd"></path><path fill="#000" d="m6.389 5.389.07.07-.07-.07Zm11.533 0-.07.07.07-.07ZM6.39 16.922l.07-.07-.07.07Zm5.126 5.126-.071.071.07-.07Zm1.281 0 .07.071-.07-.07Zm3.845-6.408.07.07-.07-.07Zm.152-8.814.073-.068-.001-.002-.072.07Zm-4.637 13.298-.07.07.07.072.07-.071-.07-.07ZM7.67 15.64l-.071.07.07-.07Zm0-8.97L7.6 6.597l.07.071Zm8.97 0 .072-.07-.001-.002-.07.071ZM6.46 5.46a8.056 8.056 0 0 1 11.393 0l.141-.142a8.256 8.256 0 0 0-11.675 0l.141.141Zm0 11.392a8.056 8.056 0 0 1 0-11.393l-.141-.141a8.256 8.256 0 0 0 0 11.675l.141-.141Zm5.126 5.126L6.46 16.852l-.141.141 5.126 5.126.141-.141Zm1.14 0a.806.806 0 0 1-1.14 0l-.141.141c.393.393 1.03.393 1.423 0l-.142-.141Zm5.127-5.126-5.127 5.126.142.141 5.126-5.126-.141-.141Zm0-11.393a8.056 8.056 0 0 1 0 11.393l.141.141a8.256 8.256 0 0 0 0-11.675l-.141.141Zm-1.14 10.251a6.443 6.443 0 0 0 .154-8.952l-.146.136a6.243 6.243 0 0 1-.15 8.675l.142.141Zm-4.486 4.485 4.486-4.485-.142-.141-4.485 4.484.141.142ZM7.6 15.71l4.485 4.485.141-.142-4.485-4.484-.141.141Zm0-9.112a6.443 6.443 0 0 0 0 9.112l.141-.141a6.243 6.243 0 0 1 0-8.83L7.6 6.6Zm9.112 0a6.443 6.443 0 0 0-9.112 0l.141.142a6.243 6.243 0 0 1 8.83 0l.14-.142Zm.153.158-.152-.156-.144.139.152.156.144-.139Zm-4.71 1.771c1.132 0 2.05.918 2.05 2.049h.2a2.249 2.249 0 0 0-2.25-2.249v.2Zm-2.048 2.049c0-1.131.917-2.049 2.049-2.049v-.2a2.249 2.249 0 0 0-2.25 2.249h.201Zm2.049 2.049a2.049 2.049 0 0 1-2.049-2.049h-.2a2.249 2.249 0 0 0 2.249 2.249v-.2Zm2.048-2.049a2.049 2.049 0 0 1-2.048 2.049v.2a2.249 2.249 0 0 0 2.248-2.249h-.2Z"></path></svg>