<svg viewBox="0 0 20 18.02" xmlns="http://www.w3.org/2000/svg"><path d="m18.3 0a2.41 2.41 0 0 0 -.79.19l-2.22.92-4.6 1.94-9.38 3.95a2.06 2.06 0 0 0 -.66.35 1.73 1.73 0 0 0 -.65 1.3 1.73 1.73 0 0 0 .5 1.18 2.26 2.26 0 0 0 .78.48l3.72 1.46c.31 1 1.06 3.2 1.23 3.75a3 3 0 0 0 .47 1 1.59 1.59 0 0 0 .36.32l.17.08h.05.09a1.16 1.16 0 0 0 .4.07 1.45 1.45 0 0 0 .88-.29l2.35-2 2.87 2.65a1.65 1.65 0 0 0 1.42.64 1.79 1.79 0 0 0 1.3-.58 1.88 1.88 0 0 0 .55-1c.06-.29 2.82-14.15 2.82-14.15a2.28 2.28 0 0 0 0-1.13 1.59 1.59 0 0 0 -.7-.94 1.7 1.7 0 0 0 -.96-.19zm-.4 2.19c-.1.55-2.56 12.89-2.72 13.71l-2.86-2.64a2 2 0 0 0 -2.64-.06l-1.46 1.23.78-3s5.36-5.43 5.68-5.78.32-.34.32-.43a.18.18 0 0 0 -.2-.2 1 1 0 0 0 -.39.17c-1.15.72-6.06 3.52-8.41 4.88a1.17 1.17 0 0 0 -.27-.15l-3.2-1.27 8.94-3.76 4.6-1.89z"/></svg>