<svg xmlns="http://www.w3.org/2000/svg" viewBox="0 0 21 11.98"><path d="M20.89,10.82c0-.05-.05-.1-.07-.14a11,11,0,0,0-2.09-2.41l0,0v0h0c-.46-.44-.76-.74-.88-.89a.83.83,0,0,1-.15-.89,7.88,7.88,0,0,1,1-1.43l.71-.93C20.59,2.4,21.14,1.33,21,.87L20.91.76a.62.62,0,0,0-.34-.18,1.58,1.58,0,0,0-.7,0l-3.15,0a.34.34,0,0,0-.22,0l-.14,0-.06,0,0,0a.4.4,0,0,0-.12.11A.72.72,0,0,0,16,1a16.46,16.46,0,0,1-1.17,2.46c-.27.46-.52.85-.74,1.18a5.86,5.86,0,0,1-.57.73,3.34,3.34,0,0,1-.42.38c-.12.09-.22.14-.28.12l-.19,0a.78.78,0,0,1-.24-.27,1,1,0,0,1-.13-.43,4.2,4.2,0,0,1,0-.44c0-.12,0-.3,0-.53s0-.37,0-.45c0-.28,0-.58,0-.91s0-.58,0-.77,0-.39,0-.6a2.23,2.23,0,0,0,0-.5,1.57,1.57,0,0,0-.11-.35A.63.63,0,0,0,12,.29a1.58,1.58,0,0,0-.37-.15A8.17,8.17,0,0,0,10.1,0,7.3,7.3,0,0,0,7.49.26a1.61,1.61,0,0,0-.42.33C6.94.75,6.92.84,7,.85A1.38,1.38,0,0,1,8,1.32L8,1.46a1.61,1.61,0,0,1,.16.5,6,6,0,0,1,.1.8,10.22,10.22,0,0,1,0,1.36c0,.38-.07.68-.11.89A1.54,1.54,0,0,1,8,5.52a1.08,1.08,0,0,1-.13.24l0,.06a1,1,0,0,1-.3,0,.72.72,0,0,1-.37-.15,2.44,2.44,0,0,1-.45-.42,5,5,0,0,1-.53-.75,11.62,11.62,0,0,1-.61-1.14L5.39,3.1q-.16-.31-.45-.9c-.19-.39-.36-.76-.5-1.13A.79.79,0,0,0,4.18.72l-.06,0A.52.52,0,0,0,4,.6.78.78,0,0,0,3.7.53l-3,0A.74.74,0,0,0,.08.76L0,.82A.42.42,0,0,0,0,1a.75.75,0,0,0,.07.29c.43,1,.91,2,1.42,3s1,1.72,1.34,2.3S3.6,7.71,4,8.22s.65.85.78,1l.3.33.28.26a7.09,7.09,0,0,0,.77.63c.34.24.71.48,1.12.72a6.1,6.1,0,0,0,1.44.58,5,5,0,0,0,1.6.18h1.26a.84.84,0,0,0,.57-.24l.05-.06a.81.81,0,0,0,.08-.2,1,1,0,0,0,0-.3,3.29,3.29,0,0,1,.07-.85,1.89,1.89,0,0,1,.19-.56,1.14,1.14,0,0,1,.23-.33A1.42,1.42,0,0,1,13,9.22l.08,0a.67.67,0,0,1,.62.17,3.59,3.59,0,0,1,.67.63c.21.25.46.53.75.85a5.6,5.6,0,0,0,.76.7l.22.13a2.57,2.57,0,0,0,.57.24,1.2,1.2,0,0,0,.61.05l2.8,0a1.31,1.31,0,0,0,.65-.14.54.54,0,0,0,.27-.3.91.91,0,0,0,0-.37A2.49,2.49,0,0,0,20.89,10.82Z"/></svg>