<svg viewBox="0 0 20.26 24" xmlns="http://www.w3.org/2000/svg"><path d="m19.91 12.15a2.56 2.56 0 0 0 -2.19-2 68.59 68.59 0 0 0 -7.59-.28 68.41 68.41 0 0 0 -7.58.28 2.56 2.56 0 0 0 -2.19 2 21.27 21.27 0 0 0 -.36 4.79 21.91 21.91 0 0 0 .35 4.79 2.56 2.56 0 0 0 2.19 2 68.59 68.59 0 0 0 7.59.28 68.68 68.68 0 0 0 7.59-.28 2.54 2.54 0 0 0 2.18-2 21.32 21.32 0 0 0 .36-4.79 21.87 21.87 0 0 0 -.35-4.79zm-14.13 1.19h-1.47v7.79h-1.31v-7.79h-1.49v-1.28h4.27zm3.7 7.79h-1.23v-.74a2 2 0 0 1 -1.4.83.74.74 0 0 1 -.78-.5 3.3 3.3 0 0 1 -.11-1v-5.35h1.22v5a4.29 4.29 0 0 0 0 .48c0 .19.12.28.29.28s.5-.19.77-.57v-5.19h1.24zm4.65-2a5.6 5.6 0 0 1 -.13 1.34 1 1 0 0 1 -1 .75 1.68 1.68 0 0 1 -1.27-.74v.65h-1.19v-9.07h1.22v3a1.69 1.69 0 0 1 1.24-.77 1 1 0 0 1 1 .76 5.4 5.4 0 0 1 .12 1.36zm4.62-1.13h-2.45v1.19c0 .63.21.94.63.94s.47-.16.54-.49a7.83 7.83 0 0 0 0-.83h1.25v.19.79a1.66 1.66 0 0 1 -.28.73 1.69 1.69 0 0 1 -1.48.73 1.75 1.75 0 0 1 -1.48-.69 2.61 2.61 0 0 1 -.4-1.59v-2.39a2.62 2.62 0 0 1 .38-1.58 1.72 1.72 0 0 1 1.47-.7 1.68 1.68 0 0 1 1.44.7 2.62 2.62 0 0 1 .38 1.59z"/><path d="m16.92 15.39c-.41 0-.62.32-.62.94v.67h1.23v-.63c0-.66-.21-.98-.61-.98z"/><path d="m12.37 15.39a.9.9 0 0 0 -.61.3v4.12a.86.86 0 0 0 .61.3c.36 0 .53-.3.53-.91v-2.88c0-.61-.17-.93-.53-.93z"/><path d="m13.06 9.26a2 2 0 0 0 1.41-.84v.74h1.24v-6.83h-1.24v5.22c-.27.39-.53.58-.78.58s-.27-.1-.29-.29a2.16 2.16 0 0 1 0-.48v-5h-1.25v5.4a3.4 3.4 0 0 0 .11 1 .77.77 0 0 0 .8.5z"/><path d="m4.44 5.45v3.71h1.37v-3.71l1.65-5.45h-1.38l-.94 3.6-.97-3.6h-1.45l.88 2.55a21.9 21.9 0 0 1 .84 2.9z"/><path d="m9.3 9.26a1.71 1.71 0 0 0 1.45-.7 2.67 2.67 0 0 0 .38-1.56v-2.44a2.69 2.69 0 0 0 -.38-1.56 1.71 1.71 0 0 0 -1.45-.7 1.72 1.72 0 0 0 -1.44.7 2.69 2.69 0 0 0 -.38 1.61v2.39a2.67 2.67 0 0 0 .38 1.61 1.72 1.72 0 0 0 1.44.65zm-.59-4.95c0-.63.2-.94.59-.94s.59.31.59.94v2.87c0 .64-.19 1-.59 1s-.59-.31-.59-1z"/></svg>